Coordinates
version=1
nRows=27
nColumns=12
inDegrees=yes

Units are S.I. units (second, meters, Newtons, ...)
Angles are in degrees

endheader
time	SC_y	SC_z	SC_x	AC_y	AC_z	AC_x	GH_y	GH_z	GH_yy	EL_x	PS_y
       0.0              -20.45          11.36          3.098          34.32         -12.81         -11.45          144.9          8.109         -6.022          63.94          145.8
   0.03057              -20.45          11.36            3.1          34.32         -12.81         -11.45          144.9          8.109         -6.007          63.94          145.8
   0.06114              -20.45          11.35          3.102          34.32         -12.81         -11.45          144.9           8.11         -5.991          63.95          145.8
   0.09171              -20.44          11.35          3.104          34.33         -12.81         -11.44          144.9           8.11         -5.975          63.96          145.8
    0.1223              -20.44          11.35          3.107          34.33         -12.81         -11.44          144.9           8.11         -5.957          63.96          145.8
    0.1529              -20.44          11.35          3.109          34.34         -12.81         -11.44          144.9           8.11         -5.938          63.97          145.8
    0.1834              -20.44          11.34          3.112          34.34         -12.81         -11.43          144.9           8.11         -5.917          63.97          145.8
     0.214              -20.44          11.34          3.115          34.35         -12.81         -11.43          144.9          8.111         -5.895          63.98          145.8
    0.2446              -20.44          11.34          3.119          34.35         -12.81         -11.42          144.8          8.111         -5.872          63.99          145.8
    0.2751              -20.43          11.33          3.122          34.36         -12.82         -11.42          144.8          8.111         -5.847           64.0          145.7
    0.3057              -20.43          11.33          3.126          34.37         -12.82         -11.41          144.8          8.112          -5.82          64.01          145.7
    0.3363              -20.43          11.33           3.13          34.37         -12.82         -11.41          144.8          8.112         -5.791          64.02          145.7
    0.3668              -20.43          11.32          3.134          34.38         -12.82          -11.4          144.8          8.112          -5.76          64.03          145.7
    0.3974              -20.43          11.32          3.139          34.39         -12.82         -11.39          144.7          8.113         -5.726          64.04          145.7
     0.428              -20.42          11.31          3.144           34.4         -12.82         -11.39          144.7          8.113          -5.69          64.05          145.7
    0.4586              -20.42          11.31          3.149          34.41         -12.82         -11.38          144.7          8.114          -5.65          64.07          145.6
    0.4891              -20.42           11.3          3.155          34.42         -12.82         -11.37          144.6          8.114         -5.607          64.08          145.6
    0.5197              -20.41           11.3          3.162          34.43         -12.83         -11.36          144.6          8.115          -5.56           64.1          145.6
    0.5503              -20.41          11.29          3.169          34.44         -12.83         -11.35          144.6          8.115         -5.509          64.11          145.6
    0.5808               -20.4          11.28          3.177          34.46         -12.83         -11.34          144.5          8.116         -5.453          64.13          145.5
    0.6114               -20.4          11.27          3.185          34.47         -12.83         -11.33          144.5          8.117         -5.391          64.15          145.5
     0.642              -20.39          11.26          3.195          34.49         -12.84         -11.31          144.4          8.118         -5.324          64.18          145.5
    0.6726              -20.39          11.25          3.205           34.5         -12.84          -11.3          144.4          8.118         -5.249           64.2          145.4
    0.7031              -20.38          11.24          3.217          34.52         -12.84         -11.28          144.3          8.119         -5.166          64.23          145.4
    0.7337              -20.37          11.23           3.23          34.55         -12.85         -11.26          144.2          8.121         -5.074          64.26          145.4
    0.7643              -20.37          11.22          3.244          34.57         -12.85         -11.24          144.2          8.122         -4.971           64.3          145.3
    0.7948              -20.36           11.2           3.26           34.6         -12.85         -11.22          144.1          8.123         -4.856          64.34          145.2
